<svg version="1.2" xmlns="http://www.w3.org/2000/svg" viewBox="0 0 1920 510">
	<defs>
		<clipPath clipPathUnits="userSpaceOnUse" id="cp1">
			<path d="m974.86 101.67h106.47v89.33h-106.47z"/>
		</clipPath>
		<clipPath clipPathUnits="userSpaceOnUse" id="cp2">
			<path d="m974.86 8.33h424v204h-424z"/>
		</clipPath>
		<clipPath clipPathUnits="userSpaceOnUse" id="cp3">
			<path d="m0 59.49h299v223.51h-299z"/>
		</clipPath>
		<clipPath clipPathUnits="userSpaceOnUse" id="cp4">
			<path d="m193.33 165.67h105.67v125.33h-105.67z"/>
		</clipPath>
		<clipPath clipPathUnits="userSpaceOnUse" id="cp5">
			<path d="m193.33 335h105.67v169.33h-105.67z"/>
		</clipPath>
	</defs>
	<style>
		.s0 { fill: #ffffff } 
		.s1 { fill: #f1511b } 
		.s2 { fill: #c9b594 } 
		.s3 { fill: #dfd3be } 
	</style>
	<g>
		<g>
			<g>
				<path class="s0" d="m404.37 392.21h-56.19v-280.46h110.39q23.57 0 40.25 9.44 16.71 9.42 26.52 24.73 9.82 15.31 13.15 33.98 3.35 18.64 0 37.12-3.34 18.46-13.35 33.79-10.01 15.32-26.71 24.75-16.69 9.42-39.86 9.42h-54.2zm0-161.83h49.47q11.39 0 18.07-6.3 6.68-6.28 9.04-15.7 2.37-9.44 0-18.86-2.36-9.43-9.04-15.71-6.68-6.29-18.07-6.29h-49.47z"/>
			</g>
		</g>
	</g>
	<g>
		<g>
			<g>
				<path class="s0" d="m724.9 392.21l-56.56-107.23h-27.1v107.23h-56.19v-280.86h110.79q25.12 0.01 42.6 10.42 17.48 10.4 27.3 27.11 9.82 16.68 12.18 36.12 2.36 19.44-2.96 38.1-5.29 18.68-18.06 33-12.75 14.34-33.58 20.23l65.21 115.88zm-83.67-161.83h49.48q11.39 0 18.27-6.3 6.87-6.28 9.23-15.7 2.35-9.44 0-18.86-2.36-9.43-9.23-15.71-6.88-6.29-18.27-6.29h-49.48z"/>
			</g>
		</g>
	</g>
	<g>
		<g>
			<g>
				<path class="s0" d="m800.72 392.21l118.23-291.08h5.9l118.22 291.08h-63.22l-11.4-30.25h-93.1l-11 30.25zm95.06-82.88h51.83l-25.52-73.06z"/>
			</g>
		</g>
	</g>
	<g>
		<g>
			<g>
			</g>
		</g>
	</g>
	<g>
		<g>
			<g>
			</g>
		</g>
	</g>
	<g>
		<g>
			<g>
				<path class="s0" d="m1450.84 392.21h-145.35v-280.86h140.62v56.17h-84.43v56.17h73.83v56.16h-73.83v56.19h89.16z"/>
			</g>
		</g>
	</g>
	<g>
		<g>
			<g>
				<path class="s0" d="m1648.83 392.21h-145.36v-280.86h140.63v56.17h-84.44v56.17h73.83v56.16h-73.83v56.19h89.17z"/>
			</g>
		</g>
	</g>
	<g>
		<g>
			<g>
				<path class="s0" d="m1757.64 239.4v152.81h-56.19v-286.75h14.94l141.81 164.98v-158.69h56.56v286.35h-14.93z"/>
			</g>
		</g>
	</g>
	<g>
		<g>
			<g>
				<path class="s0" d="m408.65 439.6l-10 33.5-2.75 9.2-5.62-7.81-8.48-11.64-8.42 11.64-5.6 7.75-2.75-9.14-9.96-33.5h7.93l7.69 25.75 6.48-8.98 1.21-1.71 3.48-4.75 3.48 4.75 1.23 1.71 6.46 8.98 7.68-25.75z"/>
			</g>
		</g>
	</g>
	<g>
		<g>
			<g>
				<path class="s0" d="m448.07 447.22q-1.58 0-2.75 1.17-1.15 1.15-1.14 2.73v3.98h27.45v7.62h-27.45v8.04q-0.01 1.61 1.14 2.77 1.17 1.15 2.75 1.15h31.19v7.62h-31.19q-3.17 0.01-5.77-1.54-2.58-1.56-4.15-4.19-1.56-2.62-1.56-5.81v-19.64q0-3.17 1.56-5.8 1.57-2.62 4.15-4.16 2.6-1.56 5.77-1.56h31.19v7.62z"/>
			</g>
		</g>
	</g>
	<g>
		<g>
			<g>
				<path class="s0" d="m543.76 457.35q2.74 1.83 4.41 4.79 1.69 2.96 1.69 6.56 0 3.73-1.83 6.83-1.84 3.11-4.92 4.94-3.09 1.83-6.85 1.83h-29.13v-42.7h26.92q3.16 0 5.79 1.56 2.62 1.54 4.19 4.16 1.56 2.63 1.56 5.8 0 3.42-1.83 6.23zm-28.98-10.13v7.81h19.33q1.58 0.01 2.75-1.16 1.17-1.17 1.17-2.75 0-1.58-1.17-2.73-1.17-1.17-2.75-1.17zm21.48 27.46v-0.06q2.5 0 4.23-1.77 1.75-1.77 1.75-4.21 0-2.5-1.75-4.23-1.73-1.75-4.23-1.75h-21.48v12.02z"/>
			</g>
		</g>
	</g>
	<g>
		<g>
			<g>
			</g>
		</g>
	</g>
	<g>
		<g>
			<g>
				<path class="s0" d="m627.71 439.6l21.31 0.06q4.4 0 8.27 1.64 3.88 1.65 6.84 4.59 2.95 2.92 4.6 6.79 1.65 3.88 1.65 8.27 0 3.9-1.36 7.44-1.33 3.54-3.7 6.35-0.26 0.3-0.59 0.65-0.33 0.33-0.64 0.62-2.88 2.94-6.75 4.63-3.88 1.67-8.25 1.66h-21.38zm7.58 7.69v27.46h13.73q3.77 0 6.88-1.85 3.12-1.88 4.98-4.98 1.87-3.13 1.87-6.9 0-3.79-1.87-6.9-1.86-3.12-4.98-4.97-3.11-1.86-6.88-1.86z"/>
			</g>
		</g>
	</g>
	<g>
		<g>
			<g>
				<path class="s0" d="m709.85 447.22q-1.58 0-2.75 1.17-1.14 1.15-1.14 2.73v3.98h27.46v7.62h-27.46v8.04q0 1.61 1.14 2.77 1.17 1.15 2.75 1.15h31.19v7.62h-31.19q-3.17 0.01-5.77-1.54-2.58-1.56-4.14-4.19-1.56-2.62-1.56-5.81v-19.64q0-3.17 1.56-5.8 1.56-2.62 4.14-4.16 2.6-1.56 5.77-1.56h31.19v7.62z"/>
			</g>
		</g>
	</g>
	<g>
		<g>
			<g>
				<path class="s0" d="m809.31 451.37l-7.62 0.06v-0.25q-0.01-1.58-1.17-2.73-1.15-1.17-2.73-1.17h-17.33q-1.59 0-2.75 1.17-1.15 1.15-1.15 2.73v0.25q0 1.58 1.15 2.75 1.16 1.15 2.75 1.14h15.37q3 0.01 5.56 1.21 2.56 1.19 4.4 3.19 0.1 0.13 0.23 0.29 0.12 0.15 0.25 0.27 1.39 1.72 2.21 3.92 0.83 2.19 0.83 4.62 0 3.71-1.83 6.78-1.82 3.04-4.88 4.87-3.04 1.83-6.77 1.83h-13.35q-3.73 0-6.79-1.83-3.05-1.83-4.88-4.87-1.83-3.07-1.83-6.78h7.64q0 2.44 1.71 4.15 1.71 1.71 4.15 1.71h13.35q2.44 0 4.17-1.71 1.75-1.71 1.75-4.15 0-2.43-1.75-4.14-1.73-1.71-4.17-1.71h-15.37q-2.32 0-4.38-0.85-2.05-0.88-3.62-2.4-0.8-0.85-1.46-1.83-2.02-2.85-2.02-6.52v-0.25q0-3.17 1.56-5.8 1.56-2.62 4.15-4.16 2.6-1.56 5.77-1.56h17.33q3.16 0 5.79 1.56 2.62 1.54 4.17 4.16 1.56 2.63 1.56 5.8z"/>
			</g>
		</g>
	</g>
	<g>
		<g>
			<g>
				<path class="s0" d="m844.84 482.3h-7.64v-42.7h7.64z"/>
			</g>
		</g>
	</g>
	<g>
		<g>
			<g>
				<path class="s0" d="m894.09 447.22q-3.79 0-6.92 1.85-3.1 1.86-4.96 4.98-1.85 3.11-1.85 6.9 0 3.77 1.85 6.9 1.86 3.1 4.96 4.97 3.13 1.86 6.92 1.86h13.73v-8.19h-13.73v-7.62h21.35v23.43h-21.35q-4.4 0-8.27-1.64-3.88-1.64-6.83-4.61-2.97-2.95-4.63-6.83-1.65-3.87-1.65-8.27 0-4.39 1.65-8.27 1.66-3.88 4.63-6.83 2.95-2.96 6.83-4.61 3.87-1.64 8.27-1.64h21.35v7.62z"/>
			</g>
		</g>
	</g>
	<g>
		<g>
			<g>
				<path class="s0" d="m978.42 439.6l7.63 0.06v42.71l-7.63-5.86-27.46-21.19v27.05h-7.64v-42.61l7.64 5.88 27.46 21.16z"/>
			</g>
		</g>
	</g>
	<g>
		<g>
			<g>
			</g>
		</g>
	</g>
	<g>
		<g>
			<g>
				<path class="s0" d="m1078.01 457.1l29.64-0.17v7.69h-7.62v17.5h-22.02q-3.42 0-6.3-1.67-2.87-1.69-4.56-4.54-1.67-2.87-1.67-6.29 0-2.57 0.94-4.82 0.96-2.26 2.61-3.98-1.65-1.7-2.61-3.95-0.94-2.27-0.94-4.84 0-3.47 1.67-6.31 1.69-2.83 4.56-4.5 2.88-1.69 6.3-1.69h22.02v7.63h-22.02q-2.03 0-3.48 1.46-1.46 1.46-1.46 3.48 0 2.08 1.46 3.54 1.45 1.46 3.48 1.46zm14.45 17.39v-9.94h-14.39q-2.03 0.01-3.48 1.46-1.46 1.46-1.46 3.54 0 2 1.46 3.48 1.45 1.46 3.48 1.46z"/>
			</g>
		</g>
	</g>
	<g>
		<g>
			<g>
			</g>
		</g>
	</g>
	<g>
		<g>
			<g>
				<path class="s0" d="m1186.98 439.6l21.31 0.06q4.39 0 8.27 1.64 3.87 1.65 6.83 4.59 2.96 2.92 4.61 6.79 1.64 3.88 1.64 8.27 0 3.9-1.35 7.44-1.33 3.54-3.71 6.35-0.25 0.3-0.58 0.65-0.34 0.33-0.65 0.62-2.87 2.94-6.75 4.63-3.87 1.67-8.25 1.66h-21.37zm7.58 7.69v27.46h13.73q3.77 0 6.88-1.85 3.12-1.88 4.97-4.98 1.88-3.13 1.88-6.9 0-3.79-1.88-6.9-1.85-3.12-4.97-4.97-3.11-1.86-6.88-1.86z"/>
			</g>
		</g>
	</g>
	<g>
		<g>
			<g>
				<path class="s0" d="m1269.12 447.22q-1.58 0-2.75 1.17-1.15 1.15-1.14 2.73v3.98h27.45v7.62h-27.45v8.04q-0.01 1.61 1.14 2.77 1.17 1.15 2.75 1.15h31.19v7.62h-31.19q-3.17 0.01-5.77-1.54-2.58-1.56-4.15-4.19-1.56-2.62-1.56-5.81v-19.64q0-3.17 1.56-5.8 1.57-2.62 4.15-4.16 2.6-1.56 5.77-1.56h31.19v7.62z"/>
			</g>
		</g>
	</g>
	<g>
		<g>
			<g>
				<path class="s0" d="m1360.79 439.6h8.54l-3.92 7.62-17.87 35.08-17.88-35.08-3.92-7.62h8.55l3.91 7.62 9.34 18.31 9.33-18.31z"/>
			</g>
		</g>
	</g>
	<g>
		<g>
			<g>
				<path class="s0" d="m1406.36 447.22q-1.59 0-2.75 1.17-1.15 1.15-1.15 2.73v3.98h27.46v7.62h-27.46v8.04q0 1.61 1.15 2.77 1.16 1.15 2.75 1.15h31.19v7.62h-31.19q-3.17 0.01-5.77-1.54-2.59-1.56-4.15-4.19-1.56-2.62-1.56-5.81v-19.64q0-3.17 1.56-5.8 1.56-2.62 4.15-4.16 2.6-1.56 5.77-1.56h31.19v7.62z"/>
			</g>
		</g>
	</g>
	<g>
		<g>
			<g>
				<path class="s0" d="m1478.25 474.68l22.38 0.06v7.63h-21.65q-3.19 0-5.98-1.4-4.21-2.08-6.17-6.23-1.41-2.81-1.41-5.98v-29.1h7.64v29.83q0.29 2.02 1.73 3.46 1.44 1.42 3.46 1.73z"/>
			</g>
		</g>
	</g>
	<g>
		<g>
			<g>
				<path class="s0" d="m1548.35 439.6q4.39 0 8.27 1.64 3.87 1.65 6.83 4.61 2.96 2.95 4.61 6.83 1.66 3.88 1.66 8.27 0 4.4-1.66 8.27-1.65 3.88-4.61 6.83-2.96 2.97-6.83 4.61-3.88 1.64-8.27 1.64-4.4 0-8.27-1.64-3.86-1.64-6.84-4.61-2.96-2.95-4.6-6.83-1.65-3.87-1.65-8.27 0-4.39 1.65-8.27 1.64-3.88 4.6-6.83 2.98-2.96 6.84-4.61 3.87-1.64 8.27-1.64zm0 35.08q3.79 0 6.89-1.86 3.13-1.87 4.98-4.97 1.86-3.13 1.86-6.9 0-3.79-1.86-6.9-1.85-3.12-4.98-4.98-3.1-1.85-6.89-1.85-3.77 0-6.9 1.85-3.1 1.86-4.98 4.98-1.85 3.11-1.85 6.9 0 3.77 1.85 6.9 1.88 3.1 4.98 4.97 3.13 1.86 6.9 1.86z"/>
			</g>
		</g>
	</g>
	<g>
		<g>
			<g>
				<path class="s0" d="m1631.17 442.95l0.06 0.12q1.58 1.53 2.46 3.63 0.89 2.11 0.9 4.48 0 3.48-1.88 6.29-1.86 2.82-4.85 4.21-1.53 0.73-3.29 0.92-0.07 0-0.15 0-0.08 0-0.21 0v0.06h-20.44v19.64h-7.64v-42.7h26.91q2.38 0 4.48 0.89 2.1 0.88 3.65 2.46zm-6.48 11.83v-0.06q1.04-0.48 1.67-1.42 0.64-0.95 0.64-2.12 0-1.04-0.43-1.77-0.42-0.73-0.71-1.04-0.38-0.35-1.04-0.71-0.67-0.38-1.71-0.38h-19.34v7.88h19.34q0.85 0 1.58-0.38z"/>
			</g>
		</g>
	</g>
	<g>
		<g>
			<g>
				<path class="s0" d="m1697.5 445.45l7.63-5.85v42.7h-7.63v-27.2l-7.52 5.72-6.21 4.82-6.23-4.82-7.5-5.72v27.2h-7.64v-42.7l7.64 5.85 13.73 10.56z"/>
			</g>
		</g>
	</g>
	<g>
		<g>
			<g>
				<path class="s0" d="m1744.54 447.22q-1.59 0-2.75 1.17-1.15 1.15-1.15 2.73v3.98h27.46v7.62h-27.46v8.04q0 1.61 1.15 2.77 1.16 1.15 2.75 1.15h31.19v7.62h-31.19q-3.17 0.01-5.77-1.54-2.59-1.56-4.15-4.19-1.56-2.62-1.56-5.81v-19.64q0-3.17 1.56-5.8 1.56-2.62 4.15-4.16 2.6-1.56 5.77-1.56h31.19v7.62z"/>
			</g>
		</g>
	</g>
	<g>
		<g>
			<g>
				<path class="s0" d="m1838.7 439.6l7.63 0.06v42.71l-7.63-5.86-27.45-21.19v27.05h-7.65v-42.61l7.65 5.88 27.45 21.16z"/>
			</g>
		</g>
	</g>
	<g>
		<g>
			<g>
				<path class="s0" d="m1874.2 439.66h42.67v7.62h-17.52v35.09h-7.63v-35.09h-17.52z"/>
			</g>
		</g>
	</g>
	<path class="s0" d="m1201.33 150.67l-64.54 111.92-28.98-50.19c-20.85 10.93-40.59 18.26-58.33 19.47l87.31 151.21 175.79-304.71c-32.88 14.6-71.71 43.48-111.25 72.3z"/>
	<g id="Clip-Path" clip-path="url(#cp1)">
		<g>
			<path class="s0" d="m1080.88 165.77l-36.5-63.23h-69.57l50.91 88.16c15.96-3.06 34.7-12.31 55.16-24.93z"/>
		</g>
	</g>
	<g id="Clip-Path" clip-path="url(#cp2)">
		<g>
			<path class="s1" d="m974.81 126.86c51.71 282.1 383.41-244.21 424.23-21.5-54.88-299.4-388.58 216-424.23 21.5z"/>
		</g>
	</g>
	<g id="Clip-Path" clip-path="url(#cp3)">
		<g>
			<path fill-rule="evenodd" class="s0" d="m0 281.86l194.58-115.51v0.71l104.5-53.66-104.5-53.66-194.58 115.5z"/>
		</g>
	</g>
	<path fill-rule="evenodd" class="s2" d="m0 175.24l194.58 115.37v106.61l-194.58-115.36z"/>
	<g id="Clip-Path" clip-path="url(#cp4)">
		<g>
			<path fill-rule="evenodd" class="s3" d="m194.58 166.35l104.5 61.99-104.5 61.99z"/>
		</g>
	</g>
	<path fill-rule="evenodd" class="s3" d="m89.81 335.09l104.77 62.13v106.76l-194.58-115.51z"/>
	<g id="Clip-Path" clip-path="url(#cp5)">
		<g>
			<path fill-rule="evenodd" class="s2" d="m299.08 335.23l-104.5 61.99v106.76l104.5-62.13z"/>
		</g>
	</g>
</svg>
